<?xml version="1.0" encoding="UTF-8"?>
<svg xmlns="http://www.w3.org/2000/svg" xmlns:xlink="http://www.w3.org/1999/xlink" viewBox="0 0 412.92 149.24">
  <defs>
    <style>
      .cls-1 {
        fill: url(#Degradado_sin_nombre_14);
      }

      .cls-1, .cls-2, .cls-3, .cls-4, .cls-5, .cls-6, .cls-7, .cls-8, .cls-9 {
        stroke: #010101;
        stroke-miterlimit: 10;
      }

      .cls-10 {
        letter-spacing: 0em;
      }

      .cls-11 {
        isolation: isolate;
      }

      .cls-12 {
        letter-spacing: 0em;
      }

      .cls-2 {
        fill: url(#Degradado_sin_nombre_14-2);
        opacity: .51;
      }

      .cls-2, .cls-5, .cls-7 {
        mix-blend-mode: multiply;
      }

      .cls-3 {
        fill: none;
      }

      .cls-3, .cls-13, .cls-14 {
        font-family: BebasNeue-Regular, 'BebasNeue Regular';
        font-size: 45.8px;
      }

      .cls-4 {
        fill: url(#linear-gradient);
      }

      .cls-5 {
        fill: url(#Degradado_sin_nombre_10-3);
      }

      .cls-5, .cls-7 {
        opacity: .35;
      }

      .cls-6 {
        fill: url(#linear-gradient-2);
      }

      .cls-15 {
        letter-spacing: 0em;
      }

      .cls-16 {
        letter-spacing: 0em;
      }

      .cls-13 {
        fill: #000;
      }

      .cls-14 {
        fill: #0a2d43;
      }

      .cls-7 {
        fill: url(#Degradado_sin_nombre_10-2);
      }

      .cls-8 {
        fill: url(#Degradado_sin_nombre_12);
      }

      .cls-9 {
        fill: url(#Degradado_sin_nombre_10);
      }
    </style>
    <linearGradient id="Degradado_sin_nombre_12" data-name="Degradado sin nombre 12" x1="137.71" y1="25.78" x2="108.81" y2="96.23" gradientTransform="translate(18.97 -9.49) rotate(3)" gradientUnits="userSpaceOnUse">
      <stop offset="0" stop-color="#00a6a3"/>
      <stop offset="1" stop-color="#6fc8e5"/>
    </linearGradient>
    <linearGradient id="Degradado_sin_nombre_14" data-name="Degradado sin nombre 14" x1="7.9" y1="52.46" x2="60.42" y2="139.67" gradientTransform="translate(18.97 -9.49) rotate(3)" gradientUnits="userSpaceOnUse">
      <stop offset="0" stop-color="#fdc200"/>
      <stop offset="1" stop-color="#f08220"/>
    </linearGradient>
    <linearGradient id="Degradado_sin_nombre_14-2" data-name="Degradado sin nombre 14" x1="10.49" y1="41.67" x2="63.31" y2="129.37" xlink:href="#Degradado_sin_nombre_14"/>
    <linearGradient id="linear-gradient" x1="-1.78" y1="60.53" x2="61.61" y2="117.39" gradientTransform="translate(18.97 -9.49) rotate(3)" gradientUnits="userSpaceOnUse">
      <stop offset="0" stop-color="#00a7ac"/>
      <stop offset="1" stop-color="#007ac2"/>
    </linearGradient>
    <linearGradient id="linear-gradient-2" x1="84.52" y1="33.35" x2="106.27" y2="55.1" gradientTransform="translate(18.97 -9.49) rotate(3)" gradientUnits="userSpaceOnUse">
      <stop offset="0" stop-color="#fdc200"/>
      <stop offset="1" stop-color="#eb6121"/>
    </linearGradient>
    <linearGradient id="Degradado_sin_nombre_10" data-name="Degradado sin nombre 10" x1="-11.81" y1="13.58" x2="78.43" y2="103.81" gradientTransform="translate(18.97 -9.49) rotate(3)" gradientUnits="userSpaceOnUse">
      <stop offset="0" stop-color="#ac6eac"/>
      <stop offset="0" stop-color="#0a2d43"/>
    </linearGradient>
    <linearGradient id="Degradado_sin_nombre_10-2" data-name="Degradado sin nombre 10" x1="-4.12" y1="4.03" x2="85.24" y2="93.39" xlink:href="#Degradado_sin_nombre_10"/>
    <linearGradient id="Degradado_sin_nombre_10-3" data-name="Degradado sin nombre 10" x1="76.15" y1="70.04" x2="84.8" y2="78.69" xlink:href="#Degradado_sin_nombre_10"/>
  </defs>
  <g class="cls-11">
    <g id="Capa_1" data-name="Capa 1">
      <g>
        <path class="cls-8" d="M140.73,49.52c-12.72-.61-23.57,8.31-24.24,19.93-.11,1.87.06,3.69.46,5.44.09-1.17.26-2.34.53-3.48.89-3.88,2.76-7.5,5.36-10.5-2.05,3.34-3.2,7.05-3.39,10.74-.1,1.68.02,3.36.31,4.99,3.96-12.24,16.7-20.87,31.27-20.18,2.25.11,4.43.44,6.51.95-3.97-4.54-9.96-7.57-16.82-7.89Z"/>
        <g>
          <path class="cls-1" d="M32.72,109.4c28.65-11.31,61.92.73,74.31,26.89.07.14.13.29.2.43,1.07-7.16.07-14.67-3.3-21.79-9.86-20.83-36.35-30.41-59.17-21.41-11.23,4.43-19.48,12.55-23.78,22.13,3.55-2.45,7.47-4.56,11.74-6.25Z"/>
          <path class="cls-2" d="M107.46,127.73c-.4-4.3-1.56-8.62-3.54-12.81-9.86-20.83-36.35-30.41-59.17-21.41-5.18,2.04-9.71,4.87-13.52,8.26.65-.28,1.3-.58,1.96-.84,28.62-11.29,61.84.7,74.26,26.8Z"/>
        </g>
        <path class="cls-4" d="M78.06,83.82c-3.78-2.1-8.17-3.42-12.74-3.77,4.57-.32,9.31.35,13.71,1.99.05.02.1.04.16.06-4.5-3.78-10.32-6.55-16.97-7.69-17.54-3-34.19,6.41-37.19,21.02,0,.01,0,.03,0,.04,9.6-9.79,25.25-14.85,41.48-12.08,7.69,1.32,14.55,4.24,20.2,8.25-.19-.4-.4-.8-.62-1.19-2.14-2.61-4.85-4.9-8.01-6.63Z"/>
        <path class="cls-6" d="M112.53,22.47l.37,7.18c.03.5.78.63,1,.16l3.01-6.64-1.53,7.05c-.11.5.6.78.92.37l4.67-5.79-3.33,6.52c-.23.46.38.89.8.56l6.05-4.6-4.94,5.6c-.35.39.13.94.63.72l7.08-3.15-6.27,4.36c-.44.31-.12.94.42.84l7.7-1.51-7.23,2.86c-.51.2-.36.89.19.91l7.87.22-7.77,1.2c-.55.08-.59.79-.05.92l7.59,1.93-7.85-.53c-.55-.04-.77.63-.29.88l6.86,3.53-7.49-2.23c-.53-.16-.92.45-.52.79l5.74,4.93-6.68-3.81c-.47-.27-1.01.23-.71.66l4.28,6.04-5.49-5.15c-.39-.36-1.04,0-.86.48l2.57,6.8-3.98-6.2c-.28-.44-1.01-.22-.96.28l.71,7.16-2.24-6.89c-.16-.48-.92-.44-1.01.06l-1.19,7.11-.37-7.18c-.03-.5-.78-.63-1-.16l-3.01,6.64,1.53-7.05c.11-.5-.6-.78-.92-.37l-4.67,5.79,3.33-6.52c.23-.46-.38-.89-.8-.56l-6.05,4.6,4.94-5.6c.35-.39-.13-.94-.63-.72l-7.08,3.15,6.27-4.36c.44-.31.12-.94-.42-.84l-7.7,1.51,7.23-2.86c.51-.2.36-.89-.19-.91l-7.87-.22,7.77-1.2c.55-.08.59-.79.05-.92l-7.59-1.93,7.85.53c.55.04.77-.63.29-.88l-6.86-3.53,7.49,2.23c.53.16.92-.45.52-.79l-5.74-4.93,6.68,3.81c.47.27,1.01-.23.71-.66l-4.28-6.04,5.49,5.15c.39.36,1.04,0,.86-.48l-2.57-6.8,3.98,6.2c.28.44,1.01.22.96-.28l-.71-7.16,2.24,6.89c.16.48.92.44,1.01-.06l1.19-7.11Z"/>
        <g>
          <path class="cls-9" d="M116.44,108.15c-1.86-15.42-10.24-30.31-22.98-40.7,12.99,8.29,22.71,20.54,27.63,34.38,1.66,4.62,2.7,9.39,3.21,14.2.38-2.2.64-4.43.77-6.7,2.03-35.49-27.83-65.76-66.7-67.62-19.14-.91-36.89,5.23-50.23,15.95,6.85-1.19,13.96-1.66,21.23-1.31,46.72,2.23,83.07,37.15,83.87,79.2,2.97-8.85,4.28-18.16,3.21-27.39Z"/>
          <g>
            <path class="cls-7" d="M121.08,101.82c1.66,4.62,2.7,9.37,3.21,14.17.38-2.19.64-4.42.77-6.68,2.03-35.49-27.83-65.76-66.7-67.62-9.93-.47-19.49.96-28.25,3.94,2.42-.06,4.86-.05,7.32.07,21.76,1.04,41.27,9.14,56.03,21.74,12.99,8.29,22.71,20.54,27.62,34.37Z"/>
            <path class="cls-5" d="M94.25,68.13c2.83,2.47,5.47,5.11,7.91,7.9-2.39-2.84-5.04-5.48-7.91-7.9Z"/>
          </g>
        </g>
      </g>
      <g>
        <text class="cls-13" transform="translate(132.05 111.99) scale(1.57 1)"><tspan class="cls-16" x="0" y="0">K</tspan><tspan x="24.55" y="0">unal</tspan><tspan class="cls-10" x="108.08" y="0">a</tspan><tspan class="cls-12" x="129.79" y="0">y</tspan><tspan class="cls-15" x="151.18" y="0">a</tspan></text>
        <text class="cls-14" transform="translate(132.05 111.99) scale(1.57 1)"><tspan class="cls-16" x="0" y="0">K</tspan><tspan x="24.55" y="0">unal</tspan><tspan class="cls-10" x="108.08" y="0">a</tspan><tspan class="cls-12" x="129.79" y="0">y</tspan><tspan class="cls-15" x="151.18" y="0">a</tspan></text>
        <text class="cls-3" transform="translate(132.05 111.99) scale(1.57 1)"><tspan class="cls-16" x="0" y="0">K</tspan><tspan x="24.55" y="0">unal</tspan><tspan class="cls-10" x="108.08" y="0">a</tspan><tspan class="cls-12" x="129.79" y="0">y</tspan><tspan class="cls-15" x="151.18" y="0">a</tspan></text>
      </g>
    </g>
  </g>
</svg>